<?xml version="1.0" standalone="no"?>
<!DOCTYPE svg PUBLIC "-//W3C//DTD SVG 20010904//EN"
 "http://www.w3.org/TR/2001/REC-SVG-20010904/DTD/svg10.dtd">
<svg version="1.0" xmlns="http://www.w3.org/2000/svg"
 width="1000.000000pt" height="1000.000000pt" viewBox="0 0 1000.000000 1000.000000"
 preserveAspectRatio="xMidYMid meet">
<metadata>
Created by potrace 1.14, written by Peter Selinger 2001-2017
</metadata>
<g transform="translate(0.000000,1000.000000) scale(0.100000,-0.100000)"
fill="#000000" stroke="none">
<path d="M774 9985 c-38 -7 -81 -16 -95 -21 -13 -4 -26 -8 -29 -9 -47 -8 -172
-72 -257 -131 -172 -122 -305 -314 -365 -529 l-23 -80 -2 -4190 c-3 -4100 -2
-4192 17 -4277 78 -356 338 -627 690 -720 l85 -23 4190 0 c2305 0 4209 3 4233
7 335 57 628 308 733 630 51 155 48 -125 46 4383 l-2 4190 -22 75 c-98 344
-341 587 -678 682 l-80 23 -4185 1 c-3374 2 -4199 0 -4256 -11z"/>
</g>
</svg>
