<?xml version="1.0" standalone="no"?>
<!DOCTYPE svg PUBLIC "-//W3C//DTD SVG 20010904//EN"
 "http://www.w3.org/TR/2001/REC-SVG-20010904/DTD/svg10.dtd">
<svg version="1.0" xmlns="http://www.w3.org/2000/svg"
 width="1000.000000pt" height="1000.000000pt" viewBox="0 0 1000.000000 1000.000000"
 preserveAspectRatio="xMidYMid meet">
<metadata>
Created by potrace 1.14, written by Peter Selinger 2001-2017
</metadata>
<g transform="translate(0.000000,1000.000000) scale(0.100000,-0.100000)"
fill="#000000" stroke="none">
<path d="M768 9984 c-118 -21 -256 -78 -358 -147 -66 -45 -186 -163 -236 -233
-59 -82 -119 -212 -146 -314 l-23 -85 0 -4205 0 -4205 22 -82 c25 -94 85 -228
134 -300 47 -69 164 -188 235 -239 82 -59 212 -119 314 -146 l85 -23 4205 0
4205 0 82 22 c103 28 236 89 316 147 72 51 189 170 236 238 50 75 109 205 133
298 l23 85 0 4205 0 4205 -22 82 c-28 103 -89 236 -147 316 -51 72 -170 189
-238 236 -71 48 -203 108 -293 133 l-80 23 -4185 2 c-3536 1 -4197 -1 -4262
-13z m3411 -4006 l526 -523 3 523 2 522 791 0 791 0 984 -977 984 -976 -2
-521 -3 -521 -455 0 -455 0 -3 336 -2 336 -714 707 -715 707 -143 -3 -143 -3
-3 -1043 -2 -1042 -458 2 -457 3 -3 337 -2 336 -711 704 -711 703 -146 0 -147
0 -3 -1042 -2 -1043 -455 0 -455 0 0 1500 0 1500 791 0 792 0 526 -522z"/>
</g>
</svg>
